<?xml version="1.0" standalone="no"?><!DOCTYPE svg PUBLIC "-//W3C//DTD SVG 1.1//EN" "http://www.w3.org/Graphics/SVG/1.1/DTD/svg11.dtd"><svg t="1718848123021" class="icon" viewBox="0 0 1024 1024" version="1.1" xmlns="http://www.w3.org/2000/svg" p-id="34133" xmlns:xlink="http://www.w3.org/1999/xlink" width="200" height="200"><path d="M720 264.021333c45.952 24.064 95.402667 43.904 133.973333 78.976 13.952 12.672 33.194667 30.122667 27.008 56.021334-7.381333 30.933333-49.92 44.544-80 54.997333-36.693333 12.714667-71.765333 20.181333-107.946666 25.984-9.088 59.306667-15.872 124.757333-45.013334 164.010667-11.477333 15.36-32.938667 28.842667-58.026666 18.986666-46.250667-18.133333-77.226667-79.146667-103.978667-114.986666-51.072 100.096-105.514667 200.533333-157.013333 302.976-10.112 20.138667-18.773333 42.453333-31.018667 61.013333-21.205333 32.298667-77.013333 68.48-122.965333 40.021333a72.448 72.448 0 0 1-25.002667-29.013333c-21.546667-44.885333 4.565333-94.549333 29.013333-123.008 76.586667-89.258667 159.402667-183.765333 230.954667-269.994667-65.749333 6.912-175.829333 14.336-151.978667-65.024 16.384-54.4 68.181333-97.536 98.986667-135.978666-18.56-40.405333-65.450667-101.674667-64-162.005334 0.64-25.472 15.36-42.24 40.021333-45.013333 64.853333-7.253333 128.725333 32.085333 176.981334 49.024 22.784-18.688 45.141333-42.069333 70.997333-63.018667 24.874667-20.138667 84.309333-67.968 120.021333-34.986666 36.693333 33.92 23.466667 131.498667 18.986667 190.976z m-125.013333 37.973334c-19.968-3.2-27.52 14.421333-39.978667 22.016-10.965333-5.504-29.013333-14.933333-43.008-8.021334-5.973333 16.128 6.4 29.013333 11.008 41.002667-4.992 11.008-25.813333 20.906667-20.992 36.010667 4.053333 12.8 30.848 5.162667 44.970667 4.992 8.96 9.472 16.64 33.152 32 29.994666 12.202667-2.474667 12.16-24.618667 15.018666-38.997333 14.421333-4.224 39.338667-5.205333 39.978667-18.986667 0.768-14.976-23.893333-18.432-33.962667-27.008 1.365333-13.525333 3.114667-33.877333-5.034666-40.96z" fill="#00EAC3" p-id="34134"></path><path d="M246.016 253.994667c9.813333 4.096 27.818667-3.2 34.986667 4.010666 15.232 15.402667-13.952 26.837333-34.005334 20.992-3.712 11.306667 2.688 28.373333-4.010666 34.986667-15.146667 15.018667-26.709333-12.672-20.992-33.962667-9.813333-4.096-27.861333 3.2-34.986667-4.010666-15.274667-15.402667 13.909333-26.88 34.005333-20.992 2.218667-8.106667 0.384-20.309333 0.981334-30.037334 15.36-21.077333 30.122667 3.242667 24.021333 29.013334zM822.016 498.005333c36.778667-5.973333 35.498667 48.128 4.992 48.981334-30.762667 0.896-35.114667-44.117333-4.992-48.981334zM770.005333 607.018667c29.184-3.626667 58.112 17.706667 55.978667 49.962666-4.266667 65.109333-99.029333 62.805333-99.968 0-0.426667-27.392 18.944-46.933333 43.946667-49.962666z" fill="#297EFF" p-id="34135"></path></svg>